<svg width="49" height="63" viewBox="0 0 49 63" fill="none" xmlns="http://www.w3.org/2000/svg">
<path d="M41.2306 0C37.0536 0 33.6319 3.40305 33.6319 7.55723C33.6319 11.7114 37.0536 15.0378 41.2306 15.0378C45.4077 15.0378 48.7523 11.7114 48.7523 7.55723C48.7523 3.40305 45.4077 0 41.2306 0ZM10.142 16.7547C8.87807 16.7547 7.8608 17.7664 7.8608 19.0234C7.8608 20.2804 8.87807 21.2921 10.142 21.2921H34.9266C35.7743 21.2461 38.2405 21.4454 39.3502 22.871C40.5216 24.3886 39.9822 27.0405 39.3502 28.9873C39.3502 28.9873 32.1522 51.9349 31.6127 53.6518C30.4721 57.3154 26.8963 59.6148 23.4591 58.1125C20.623 56.8709 20.4381 54.1883 21.3937 51.5823C21.517 51.2604 21.6711 51.0305 21.8099 50.7546C21.8099 50.7546 27.9752 39.2118 29.3316 35.9927C30.3334 33.632 29.0387 32.0071 25.9406 32.0071H11.8528C10.589 32.0071 9.57168 33.0188 9.57168 34.2758C9.57168 35.5328 10.589 36.5445 11.8528 36.5445H15.8603C16.708 36.4985 19.2358 36.6058 20.2069 38.1234C22.0256 40.944 20.7772 41.8637 18.0644 51.2451C17.8949 51.7356 17.7407 52.2415 17.6483 52.7627C17.6483 52.7627 15.7832 59.3235 21.7174 62.0368C27.2045 64.5354 33.5702 61.8681 35.4661 55.9205C36.7916 51.7356 43.6814 30.3669 43.6814 30.3669C45.084 26.0134 44.8528 22.5337 42.9261 20.0658C40.2596 16.6627 35.4969 16.7394 34.7725 16.77H10.142V16.7547ZM2.28117 24.2506C1.01728 24.2506 0 25.2623 0 26.5193C0 27.7763 1.01728 28.8493 2.28117 28.8493H31.4278C32.6917 28.8493 33.7089 27.7763 33.7089 26.5193C33.7089 25.2623 32.6917 24.2506 31.4278 24.2506H2.28117Z" fill="#323941"/>
</svg>
